<?xml version="1.0" standalone="no"?><!DOCTYPE svg PUBLIC "-//W3C//DTD SVG 1.1//EN" "http://www.w3.org/Graphics/SVG/1.1/DTD/svg11.dtd"><svg t="1679649247029" class="icon" viewBox="0 0 1024 1024" version="1.1" xmlns="http://www.w3.org/2000/svg" p-id="1067" width="16" height="16" xmlns:xlink="http://www.w3.org/1999/xlink"><path d="M379.5968 514.3168l137.57184-137.5744 137.5744 137.5744-137.5744 137.5744z" fill="#d81e06" p-id="1068"></path><path d="M517.12 48.384c-257.024 0-465.92 208.896-465.92 465.92s208.896 465.92 465.92 465.92 465.92-208.896 465.92-465.92-208.896-465.92-465.92-465.92z m197.376 492.8L544.256 711.68c-7.168 7.168-16.896 11.264-27.136 11.264s-19.712-4.096-27.136-11.264l-170.496-170.496c-14.848-14.848-14.848-39.168 0-54.016l170.496-170.496c7.168-7.168 16.896-11.264 27.136-11.264s19.712 4.096 27.136 11.264l170.496 170.496c14.848 14.848 14.848 39.168-0.256 54.016z" fill="#d81e06" p-id="1069"></path></svg>